# xmcd
#
# Track frame offsets:
#	150
#	19437
#	38057
#	50377
#	69122
#	79637
#	95837
#	111230
#	125465
#	137165
#
# Disc length: 2010 seconds
#
# Revision: 1
# Processed by: cddbd v1.4b42PL1 Copyright (c) Steve Scherf et al.
# Submitted via: audiograbber 1.80
#
DISCID=8407d80a
DTITLE=Don Williams - Lord I Hope This Day Is Good
DYEAR=1900
DGENRE=
TTITLE0=Fairweather Friends
TTITLE1=I Don't Want To Love You
TTITLE2=Years From Now
TTITLE3=Lord, I Hope This Day Is Good
TTITLE4=Especially You
TTITLE5=If I Needed You (With Emmylou Harris)
TTITLE6=Now And Then
TTITLE7=Smooth Talking Baby
TTITLE8=I've Got You To Thank For That
TTITLE9=Miracles
EXTD=MCAD-20690 - 1981 - 
EXTT0=
EXTT1=
EXTT2=
EXTT3=
EXTT4=
EXTT5=
EXTT6=
EXTT7=
EXTT8=
EXTT9=
PLAYORDER=
